<svg width="18" height="18" viewBox="0 0 18 18" fill="none" xmlns="http://www.w3.org/2000/svg">
<path d="M13.5833 5.33333V5.33333C13.5833 5.33333 13.5833 5.33333 13.5833 5.33333C13.5833 2.80203 11.5313 0.75 9.00001 0.75C9.00001 0.75 9.00001 0.75 9.00001 0.75V0.75C9.00001 0.75 9.00001 0.75 9.00001 0.75C6.4687 0.75 4.41668 2.80203 4.41668 5.33333C4.41668 5.33333 4.41668 5.33333 4.41668 5.33333V5.33333M7.04669 17.25H10.9533C12.3882 17.25 13.1056 17.25 13.7137 17.0573C14.7317 16.7348 15.585 16.03 16.094 15.0912C16.398 14.5304 16.5335 13.8259 16.8045 12.4169V12.4169C17.1868 10.4287 17.378 9.43456 17.2145 8.63358C16.9401 7.28878 16.0148 6.16855 14.746 5.6451C13.9903 5.33333 12.978 5.33333 10.9533 5.33333H7.04669C5.02204 5.33333 4.00971 5.33333 3.25402 5.6451C1.98524 6.16855 1.05991 7.28878 0.785488 8.63358C0.62204 9.43456 0.813215 10.4287 1.19556 12.4169V12.4169C1.46653 13.8259 1.60201 14.5304 1.90605 15.0912C2.41507 16.03 3.26833 16.7348 4.28635 17.0573C4.89444 17.25 5.61186 17.25 7.04669 17.25Z" stroke="#222222" stroke-width="1.375" stroke-linecap="round" stroke-linejoin="round"/>
</svg>
