<svg width="36" height="36" viewBox="0 0 36 36" fill="none" xmlns="http://www.w3.org/2000/svg">
<mask id="mask0_71_642" style="mask-type:luminance" maskUnits="userSpaceOnUse" x="0" y="0" width="36" height="36">
<path d="M35.6061 0.333328H0.757584V35.1818H35.6061V0.333328Z" fill="white"/>
</mask>
<g mask="url(#mask0_71_642)">
<path d="M18.1818 4.15833C10.6833 4.15833 4.58258 10.2589 4.58258 17.7576C4.58258 25.2564 10.6833 31.357 18.1818 31.357C25.6803 31.357 31.7811 25.2564 31.7811 17.7576C31.7811 10.2589 25.6803 4.15833 18.1818 4.15833ZM18.1818 29.657C11.6205 29.657 6.28258 24.3189 6.28258 17.7576C6.28258 11.1964 11.6205 5.85825 18.1818 5.85825C24.7432 5.85825 30.0811 11.196 30.0811 17.7576C30.0811 24.3194 24.7432 29.657 18.1818 29.657Z" fill="#FFB700"/>
<path d="M20.6068 4.70779L16.3576 0.458021C16.2356 0.336051 16.0523 0.299914 15.8939 0.365823C15.7356 0.431657 15.6318 0.586808 15.6318 0.758475V5.00825C15.6318 5.24287 15.822 5.43325 16.0568 5.43325C16.2917 5.43325 16.4818 5.24287 16.4818 5.00825V1.78438L20.0061 5.30878C20.0894 5.39166 20.1977 5.43325 20.3068 5.43325C20.4151 5.43325 20.5242 5.39196 20.6068 5.30878C20.7735 5.14257 20.7735 4.87393 20.6068 4.70779Z" fill="#FFB700"/>
<path d="M20.3068 30.082C20.072 30.082 19.8818 30.272 19.8818 30.507V33.7309L16.3576 30.2065C16.1909 30.0404 15.9227 30.0404 15.7561 30.2065C15.5902 30.3726 15.5902 30.6413 15.7561 30.8075L20.0061 35.0573C20.0871 35.1385 20.1962 35.1817 20.3068 35.1817C20.3614 35.1817 20.4167 35.1715 20.4697 35.1494C20.628 35.0839 20.7318 34.9284 20.7318 34.7567V30.507C20.7318 30.272 20.5417 30.082 20.3068 30.082Z" fill="#FFB700"/>
<path d="M5.43259 19.4576H2.20834L5.73258 15.9332C5.89925 15.767 5.89925 15.4984 5.73258 15.3323C5.56668 15.1661 5.29849 15.1661 5.13183 15.3323L0.882579 19.5821C0.760609 19.7036 0.72425 19.8864 0.790159 20.0454C0.856068 20.2042 1.01062 20.3076 1.18259 20.3076H5.43259C5.66668 20.3076 5.85758 20.1176 5.85758 19.8826C5.85758 19.6475 5.66668 19.4576 5.43259 19.4576Z" fill="#FFB700"/>
<path d="M35.5735 15.47C35.5083 15.3115 35.353 15.2078 35.1811 15.2078H30.9311C30.6962 15.2078 30.5061 15.3982 30.5061 15.6328C30.5061 15.8674 30.6962 16.0578 30.9311 16.0578H34.1553L30.6311 19.5822C30.4644 19.7483 30.4644 20.017 30.6311 20.1831C30.7136 20.266 30.8227 20.3076 30.9311 20.3076C31.0402 20.3076 31.1485 20.2664 31.2318 20.1831L35.4811 15.9333C35.603 15.8117 35.6394 15.6289 35.5735 15.47Z" fill="#FFB700"/>
<path d="M10.6598 6.83566H4.66742C4.49469 6.83566 4.34015 6.93975 4.27424 7.09953C4.20909 7.25885 4.24621 7.4421 4.36894 7.56316L7.38637 10.538C7.4697 10.6196 7.57727 10.6604 7.68485 10.6604C7.7947 10.6604 7.90379 10.6179 7.98712 10.5337C8.15152 10.3666 8.15 10.0977 7.98333 9.93279L5.70379 7.68551H10.6598C10.8939 7.68551 11.0849 7.49513 11.0849 7.26051C11.0849 7.02612 10.8939 6.83566 10.6598 6.83566Z" fill="#FFB700"/>
<path d="M31.9947 27.952L28.9773 24.9772C28.8099 24.8127 28.5409 24.8139 28.3765 24.9814C28.2121 25.1484 28.2129 25.4174 28.3803 25.5823L30.6599 27.8296H25.7038C25.4689 27.8296 25.2788 28.0196 25.2788 28.2546C25.2788 28.4896 25.4689 28.6796 25.7038 28.6796H31.6962C31.8682 28.6796 32.0235 28.5754 32.0894 28.4161C32.1546 28.2564 32.1174 28.0732 31.9947 27.952Z" fill="#FFB700"/>
<path d="M10.9583 27.952C10.7909 27.7871 10.5212 27.7888 10.3568 27.9562L8.10985 30.2354V25.2797C8.10985 25.0447 7.91969 24.8548 7.68485 24.8548C7.45 24.8548 7.25984 25.0447 7.25984 25.2797V31.2719C7.25984 31.4441 7.36439 31.6 7.52348 31.6651C7.57576 31.6867 7.6303 31.6969 7.68485 31.6969C7.79621 31.6969 7.90606 31.6527 7.98712 31.5702L10.9621 28.5529C11.1265 28.3859 11.125 28.117 10.9583 27.952Z" fill="#FFB700"/>
<path d="M28.8402 3.85022C28.6803 3.78522 28.497 3.82219 28.3765 3.945L25.4015 6.96234C25.2371 7.12939 25.2379 7.39833 25.4053 7.56325C25.5727 7.72772 25.8417 7.72651 26.0068 7.55901L28.2538 5.27992V10.2355C28.2538 10.4701 28.4439 10.6605 28.6788 10.6605C28.9136 10.6605 29.1038 10.4701 29.1038 10.2355V4.24325C29.1038 4.07121 29 3.9156 28.8402 3.85022Z" fill="#FFB700"/>
<path d="M15.2811 4.82636L9.67123 2.57393C9.51138 2.51022 9.3288 2.54803 9.20759 2.67212C9.08789 2.79575 9.0538 2.97984 9.12274 3.13787L10.8227 7.04765C10.8924 7.20787 11.0485 7.30356 11.2129 7.30356C11.2689 7.30356 11.3265 7.29204 11.3818 7.26788C11.597 7.17431 11.6955 6.92409 11.6015 6.70856L10.3152 3.74863L14.9644 5.61553C15.1826 5.70189 15.4296 5.59734 15.5174 5.37924C15.6046 5.16121 15.4993 4.91393 15.2811 4.82636Z" fill="#FFB700"/>
<path d="M27.2409 32.3777L25.5409 28.4679C25.4477 28.2529 25.1985 28.153 24.9826 28.2473C24.7667 28.3404 24.6682 28.5911 24.7614 28.8062L26.0485 31.7666L21.4 29.9001C21.1803 29.813 20.9341 29.9183 20.847 30.136C20.7599 30.3539 20.8652 30.6017 21.0833 30.6889L26.6924 32.9413C26.7439 32.962 26.7985 32.9719 26.8515 32.9719C26.9636 32.9719 27.075 32.9272 27.1561 32.8435C27.2765 32.7199 27.3099 32.5358 27.2409 32.3777Z" fill="#FFB700"/>
<path d="M7.69166 24.5586C7.59848 24.3427 7.34772 24.2441 7.13257 24.338L4.17272 25.6249L6.03939 20.9764C6.12651 20.7585 6.02121 20.5107 5.80303 20.4236C5.58561 20.3364 5.33788 20.4418 5.25076 20.6594L2.99773 26.2691C2.93409 26.4293 2.97273 26.6125 3.09621 26.7323C3.17728 26.811 3.28409 26.8526 3.39242 26.8526C3.45 26.8526 3.50757 26.8407 3.56212 26.8173L7.47197 25.1174C7.68712 25.0244 7.7856 24.7736 7.69166 24.5586Z" fill="#FFB700"/>
<path d="M33.2674 8.78332C33.1439 8.66309 32.9591 8.62991 32.8023 8.69832L28.8924 10.3982C28.6765 10.4918 28.578 10.742 28.6712 10.9576C28.7651 11.1726 29.0144 11.2716 29.2303 11.1776L32.1909 9.89082L30.3242 14.5392C30.2371 14.7573 30.3424 15.0046 30.5598 15.0921C30.6121 15.1129 30.6659 15.1227 30.7189 15.1227C30.8871 15.1227 31.0462 15.022 31.1129 14.8563L33.3652 9.2465C33.4303 9.08635 33.3917 8.90362 33.2674 8.78332Z" fill="#FFB700"/>
<path d="M7.52272 10.8747C7.42954 10.6588 7.17878 10.5589 6.96439 10.6523L1.43939 13.0323C1.28181 13.1007 1.18031 13.2567 1.18258 13.4288C1.18485 13.6005 1.2909 13.7543 1.45075 13.818L5.40303 15.3904C5.45455 15.4109 5.50758 15.4206 5.55985 15.4206C5.72879 15.4206 5.88863 15.3191 5.9553 15.1524C6.04166 14.9344 5.9356 14.6871 5.71742 14.6004L2.71818 13.407L7.3 11.433C7.51591 11.34 7.61515 11.0901 7.52272 10.8747Z" fill="#FFB700"/>
<path d="M34.9129 21.6976L30.9606 20.1252C30.7409 20.0373 30.4947 20.1448 30.4083 20.3628C30.3212 20.5812 30.428 20.8281 30.6462 20.9148L33.6455 22.1086L29.0629 24.0826C28.8477 24.1748 28.7477 24.4252 28.8409 24.6406C28.9098 24.8008 29.0667 24.8973 29.2311 24.8973C29.2879 24.8973 29.3447 24.8863 29.3992 24.8624L34.9242 22.4826C35.0818 22.4145 35.1833 22.2582 35.1803 22.0865C35.178 21.9148 35.072 21.7609 34.9129 21.6976Z" fill="#FFB700"/>
<path d="M15.5773 29.9847C15.3591 29.8972 15.1114 30.0042 15.025 30.2223L13.8318 33.2213L11.8576 28.6392C11.7644 28.4242 11.5144 28.3234 11.2992 28.4173C11.0841 28.5096 10.9841 28.7599 11.0773 28.9754L13.4568 34.5001C13.5242 34.6561 13.6773 34.7567 13.847 34.7567C13.8485 34.7567 13.8508 34.7567 13.8538 34.7567C14.0258 34.7542 14.1795 34.6484 14.2424 34.489L15.8152 30.5367C15.9015 30.3183 15.7955 30.0714 15.5773 29.9847Z" fill="#FFB700"/>
<path d="M25.2864 6.54037L22.9061 1.01559C22.8394 0.859609 22.6856 0.758926 22.5159 0.758926C22.5144 0.758926 22.5121 0.758926 22.5106 0.758926C22.3386 0.761048 22.1848 0.866881 22.1212 1.02665L20.5492 4.979C20.4621 5.19696 20.5682 5.4443 20.7864 5.53105C21.0068 5.61817 21.2523 5.51112 21.3386 5.29302L22.5326 2.29393L24.5061 6.8765C24.575 7.03711 24.7318 7.13362 24.8962 7.13362C24.953 7.13362 25.0098 7.12211 25.0644 7.09878C25.2795 7.00567 25.3795 6.75574 25.2864 6.54037Z" fill="#FFB700"/>
<path d="M18.1818 12.6579C15.3697 12.6579 13.0818 14.9456 13.0818 17.7576C13.0818 20.5698 15.3697 22.8574 18.1818 22.8574C20.9939 22.8574 23.2818 20.5698 23.2818 17.7576C23.2818 14.9456 20.9939 12.6579 18.1818 12.6579ZM18.1818 21.1575C16.3076 21.1575 14.7818 19.6323 14.7818 17.7576C14.7818 15.8831 16.3076 14.3579 18.1818 14.3579C20.0561 14.3579 21.5818 15.8831 21.5818 17.7576C21.5818 19.6323 20.0561 21.1575 18.1818 21.1575Z" fill="#222222"/>
<path d="M18.1818 8.8331C13.2606 8.8331 9.25758 12.8364 9.25758 17.7576C9.25758 17.9923 9.44774 18.1826 9.68259 18.1826C9.91668 18.1826 10.1068 17.9923 10.1068 17.7576C10.1068 13.3052 13.7296 9.6831 18.1818 9.6831C18.4167 9.6831 18.6068 9.49272 18.6068 9.2581C18.6068 9.02348 18.4167 8.8331 18.1818 8.8331Z" fill="#FFB700"/>
<path d="M26.6811 17.3326C26.4462 17.3326 26.2561 17.523 26.2561 17.7576C26.2561 22.2101 22.6341 25.8323 18.1818 25.8323C17.947 25.8323 17.7568 26.0222 17.7568 26.2573C17.7568 26.4923 17.947 26.6823 18.1818 26.6823C23.1023 26.6823 27.1061 22.6785 27.1061 17.7576C27.1061 17.523 26.9167 17.3326 26.6811 17.3326Z" fill="#FFB700"/>
</g>
</svg>
